<?xml version="1.0"?>
<svg xmlns="http://www.w3.org/2000/svg" height="512px" viewBox="0 -69 512 512" width="512px"><path d="m411.054688 304.027344c-2.359376 0-4.726563-.832032-6.621094-2.507813l-21.152344-18.691406c-4.140625-3.65625-4.527344-9.976563-.871094-14.117187 3.65625-4.136719 9.976563-4.527344 14.113282-.871094l14.109374 12.46875 28.683594-28.683594c3.90625-3.90625 10.238282-3.90625 14.144532 0 3.90625 3.902344 3.90625 10.234375 0 14.140625l-35.332032 35.332031c-1.949218 1.949219-4.507812 2.929688-7.074218 2.929688zm0 0" fill="#673AB7"/><path d="m150.332031 161.90625c-8.839843 0-17.132812 2.367188-24.28125 6.5-7.359375-4.269531-15.652343-6.5-24.332031-6.5-26.851562 0-48.691406 21.84375-48.691406 48.691406s21.84375 48.6875 48.691406 48.6875c8.679688 0 16.972656-2.230468 24.332031-6.496094 7.148438 4.132813 15.445313 6.496094 24.28125 6.496094 26.847657 0 48.691407-21.839844 48.691407-48.6875-.003907-26.847656-21.84375-48.691406-48.691407-48.691406zm-77.304687 48.691406c0-15.820312 12.871094-28.691406 28.6875-28.691406 2.902344 0 5.726562.425781 8.417968 1.246094-5.355468 7.820312-8.492187 17.273437-8.492187 27.445312s3.136719 19.621094 8.492187 27.441406c-2.691406.824219-5.515624 1.246094-8.417968 1.246094-15.816406 0-28.6875-12.871094-28.6875-28.6875zm77.304687 28.6875c-15.820312 0-28.691406-12.871094-28.691406-28.6875 0-15.820312 12.871094-28.691406 28.691406-28.691406 15.820313 0 28.6875 12.871094 28.6875 28.691406 0 15.820313-12.867187 28.6875-28.6875 28.6875zm0 0" fill="#673AB7"/><path d="m423.066406 178.28125v-145.5c0-18.078125-14.707031-32.78125-32.78125-32.78125h-357.496094c-18.078124 0-32.789062 14.707031-32.789062 32.78125v251.894531c0 18.078125 14.710938 32.789063 32.789062 32.789063h291.105469c15.609375 33.871094 49.878907 57.445312 89.554688 57.445312 54.339843 0 98.550781-44.210937 98.550781-98.550781 0-51.09375-39.089844-93.226563-88.933594-98.078125zm-390.277344-158.28125h357.496094c7.046875 0 12.78125 5.734375 12.78125 12.78125v25.4375h-383.066406v-25.4375c0-7.046875 5.738281-12.78125 12.789062-12.78125zm0 277.464844c-7.050781 0-12.789062-5.738282-12.789062-12.789063v-157.464843h146.308594c5.523437 0 10-4.476563 10-10 0-5.523438-4.476563-10-10-10h-146.308594v-28.992188h383.066406v28.992188h-146.308594c-5.523437 0-10 4.476562-10 10 0 5.523437 4.476563 10 10 10h146.308594v51.148437c-11.742187 1.234375-22.875 4.542969-33.027344 9.546875v-7.308594c0-5.523437-4.476562-10-10-10h-95.480468c-5.519532 0-10 4.476563-10 10v60c0 5.519532 4.480468 10 10 10h53.769531c-2.230469 8.214844-3.425781 16.851563-3.425781 25.761719 0 7.242187.792968 14.304687 2.28125 21.105469zm293.40625-66.867188h-51.636718v-40h75.480468v10.390625c-9.734374 8.203125-17.863281 18.253907-23.84375 29.609375zm87.253907 124.3125c-43.308594 0-78.546875-35.238281-78.546875-78.546875 0-43.3125 35.238281-78.550781 78.546875-78.550781 43.3125 0 78.550781 35.238281 78.550781 78.550781 0 43.308594-35.238281 78.546875-78.550781 78.546875zm0 0" fill="#673AB7"/><path d="m211.71875 127.214844c-4.113281 0-7.910156-2.632813-9.359375-6.480469-1.449219-3.863281-.328125-8.3125 2.765625-11.035156 3.183594-2.804688 7.914062-3.257813 11.589844-1.148438 3.558594 2.046875 5.550781 6.246094 4.863281 10.292969-.804687 4.757812-5.011719 8.371094-9.859375 8.371094zm0 0" fill="#673AB7"/></svg>
