<?xml version="1.0"?>
<svg xmlns="http://www.w3.org/2000/svg" height="512px" viewBox="0 0 64 64" width="512px"><g id="white_board" data-name="white board"><path d="m61 2h-58a1 1 0 0 0 -1 1v39a1 1 0 0 0 1 1h23.42l-8.05 17h-8.37v2h9a.982.982 0 0 0 .9-.57l8.73-18.43h6.74l8.73 18.43a.982.982 0 0 0 .9.57h9v-2h-8.37l-8.05-17h23.42a1 1 0 0 0 1-1v-39a1 1 0 0 0 -1-1zm-1 39h-56v-3h56zm-15-5v-4h10v4zm15 0h-3v-5a1 1 0 0 0 -1-1h-12a1 1 0 0 0 -1 1v5h-39v-32h56z" fill="#673AB7"/><path d="m8 7h6v2h-6z" fill="#673AB7"/><path d="m18 7h14v2h-14z" fill="#673AB7"/><path d="m36 7h20v2h-20z" fill="#673AB7"/><path d="m8 12h24v2h-24z" fill="#673AB7"/><path d="m36 12h10v2h-10z" fill="#673AB7"/><path d="m50 12h6v2h-6z" fill="#673AB7"/></g></svg>
